# xmcd CD database file
#
# Track frame offsets:
#	150
#	14364
#	33186
#	61361
#	76303
#	97082
#	110977
#	124479
#	136918
#	151248
#	166197
#	192634
#	210191
#	237578
#	250530
#	279102
#	303854
#
# Disc length: 4304 seconds
#
# Revision: 0
# Processed by: cddbd v1.5.1PL2 Copyright (c) Steve Scherf et al.
# Submitted via: CDex 1.51
#
DISCID=e110ce11
DTITLE=Count Basie - Jazz and Blues Masters
DYEAR=1900
DGENRE=Jazz
TTITLE0=Hittin' twelve
TTITLE1=All heart
TTITLE2=Blues alley
TTITLE3=Cheerokee
TTITLE4=Night in Tunisia
TTITLE5=Jumpin' at the woodside
TTITLE6=One o'clock jump
TTITLE7=Swingin' the blues
TTITLE8=Toppsy
TTITLE9=Every tub
TTITLE10=Moten swing
TTITLE11=Why not
TTITLE12=In a mellow tone
TTITLE13=Basie boogie
TTITLE14=The deacon
TTITLE15=Corner pocket
TTITLE16=Bubbles
EXTD=
EXTT0=
EXTT1=
EXTT2=
EXTT3=
EXTT4=
EXTT5=
EXTT6=
EXTT7=
EXTT8=
EXTT9=
EXTT10=
EXTT11=
EXTT12=
EXTT13=
EXTT14=
EXTT15=
EXTT16=
PLAYORDER=
